<svg width="24" height="24" viewBox="0 0 24 24" fill="none" xmlns="http://www.w3.org/2000/svg">
<path d="M2.35355 2.64648L21.3535 21.6465" stroke="#1E1E1E" stroke-linecap="round"/>
<path fill-rule="evenodd" clip-rule="evenodd" d="M8.44926 10.1564C8.16223 10.7081 8 11.3351 8 12C8 14.2091 9.79086 16 12 16C12.6649 16 13.2919 15.8378 13.8436 15.5507L13.0891 14.7962C12.7515 14.9278 12.3842 15 12 15C10.3431 15 9 13.6569 9 12C9 11.6158 9.07221 11.2485 9.20379 10.9109L8.44926 10.1564ZM14.6069 13.4856C14.8571 13.0476 15 12.5405 15 12C15 10.3431 13.6569 9 12 9C11.4595 9 10.9524 9.14294 10.5144 9.39309L9.78802 8.66674C10.4216 8.24547 11.1821 8 12 8C14.2091 8 16 9.79086 16 12C16 12.8179 15.7545 13.5784 15.3333 14.212L14.6069 13.4856Z" fill="#1E1E1E"/>
<path fill-rule="evenodd" clip-rule="evenodd" d="M4.8285 6.53565C3.09157 7.93077 1.7486 9.82095 1 12C2.60118 16.6608 6.92156 20 12 20C13.8257 20 15.5533 19.5685 17.092 18.7991L15.9638 17.671C14.7435 18.2053 13.4032 18.5 12 18.5C7.78045 18.5 4.12997 15.8356 2.59944 12C3.30186 10.2397 4.45079 8.72607 5.89632 7.60347L4.8285 6.53565ZM17.7678 16.6465C19.3713 15.5034 20.6446 13.8946 21.4006 12C19.87 8.16438 16.2196 5.5 12 5.5C10.4417 5.5 8.9611 5.86336 7.63617 6.51489L6.52357 5.4023C8.15649 4.50725 10.0207 4 12 4C17.0784 4 21.3988 7.33924 23 12C22.2046 14.3152 20.7383 16.3043 18.8413 17.72L17.7678 16.6465Z" fill="#1E1E1E"/>
</svg>
