<svg width="24" height="24" viewBox="0 0 24 24" fill="none" xmlns="http://www.w3.org/2000/svg">
<mask id="path-1-inside-1_340_1196" fill="white">
<path fill-rule="evenodd" clip-rule="evenodd" d="M1 12C2.60118 7.33923 6.92156 4 12 4C17.0784 4 21.3988 7.33924 23 12C21.3988 16.6608 17.0784 20 12 20C6.92156 20 2.60118 16.6608 1 12Z"/>
</mask>
<path d="M1 12L-0.41862 11.5126L-0.586048 12L-0.41862 12.4874L1 12ZM23 12L24.4186 12.4874L24.5861 12L24.4186 11.5126L23 12ZM2.41862 12.4874C3.82558 8.39193 7.60395 5.5 12 5.5V2.5C6.23917 2.5 1.37678 6.28653 -0.41862 11.5126L2.41862 12.4874ZM12 5.5C16.3961 5.5 20.1744 8.39194 21.5814 12.4874L24.4186 11.5126C22.6232 6.28654 17.7608 2.5 12 2.5V5.5ZM21.5814 11.5126C20.1744 15.6081 16.3961 18.5 12 18.5V21.5C17.7608 21.5 22.6232 17.7135 24.4186 12.4874L21.5814 11.5126ZM12 18.5C7.60395 18.5 3.82558 15.6081 2.41862 11.5126L-0.41862 12.4874C1.37678 17.7135 6.23917 21.5 12 21.5V18.5Z" fill="#1E1E1E" mask="url(#path-1-inside-1_340_1196)"/>
<path d="M10 8.5359C10.8248 8.05969 11.7925 7.89342 12.7289 8.06698C13.6654 8.24055 14.5092 8.74256 15.1086 9.48272C15.708 10.2229 16.0236 11.1526 15.9986 12.1047C15.9737 13.0568 15.6099 13.9688 14.9726 14.6765C14.3353 15.3843 13.4664 15.8415 12.5221 15.9658C11.5778 16.0901 10.6202 15.8734 9.82143 15.3547C9.02267 14.8359 8.43521 14.0492 8.16472 13.136C7.89422 12.2228 7.95844 11.2431 8.34583 10.373L12 12L10 8.5359Z" fill="#1E1E1E"/>
</svg>
